<svg width="41" height="41" viewBox="0 0 41 41" fill="none" xmlns="http://www.w3.org/2000/svg">
<path d="M38.024 14.4453C35.0547 12.5827 31.2627 13.0587 29.208 15.112C28.4868 15.8235 27.9994 16.7379 27.8107 17.7333C27.268 19.748 26.1547 21.736 24.4427 23.448C19.252 28.6387 11.5187 28.336 8.20002 23.2867C5.35069 18.952 6.82802 13.1253 10.4734 9.48C11.6642 8.29077 13.0706 7.33916 14.6174 6.676C15.2227 6.41733 15.82 6.02266 16.3414 5.49866C17.9227 3.91733 18.0747 1.92533 16.7614 1.10266C15.7894 0.491995 14.288 0.706662 13.0067 1.51333C10.7613 2.65999 8.70784 4.14889 6.92002 5.92666C1.24536 11.6 -2.26264 21.132 1.68269 29.804C7.13469 41.7867 23.5814 43.7373 34.1574 33.1613C37.8787 29.4413 40.048 24.992 40.776 20.552C41.3814 18.3453 40.3174 15.8853 38.024 14.4453Z" fill="url(#paint0_radial_4_6)"/>
<defs>
<radialGradient id="paint0_radial_4_6" cx="0" cy="0" r="1" gradientUnits="userSpaceOnUse" gradientTransform="translate(18.1113 24.3317) scale(119.241 119.243)">
<stop stop-color="#FEC32B"/>
<stop offset="1" stop-color="#F37536"/>
</radialGradient>
</defs>
</svg>
