<svg width="14" height="28" viewBox="0 0 14 28" fill="none" xmlns="http://www.w3.org/2000/svg">
<path d="M13.8333 20.7083C13.6114 20.4894 13.2515 20.4892 13.0293 20.7078C13.0292 20.708 13.0291 20.7081 13.0289 20.7083L7.56838 26.0882V0.56C7.56838 0.25074 7.31386 0 6.99993 0C6.68601 0 6.43148 0.25074 6.43148 0.56V26.0882L0.970948 20.7083C0.748826 20.4894 0.388713 20.4894 0.166591 20.7083C-0.0555305 20.9271 -0.0555305 21.2818 0.166591 21.5007L6.59804 27.8359C6.65097 27.8878 6.71372 27.9289 6.78278 27.9569C6.9217 28.0144 7.07817 28.0144 7.21708 27.9569C7.28615 27.9289 7.34889 27.8878 7.40183 27.8359L13.8333 21.5007C14.0554 21.2821 14.0556 20.9275 13.8337 20.7087C13.8336 20.7085 13.8334 20.7084 13.8333 20.7083Z" fill="white"/>
</svg>
