<svg width="100" height="25" viewBox="0 0 100 25" fill="none" xmlns="http://www.w3.org/2000/svg">
<rect width="100" height="25" rx="2" fill="#2F80ED"/>
<path d="M32.682 15.488C32.2527 16.496 31.6273 17 30.806 17H30.05V16.328H30.638C31.2633 16.328 31.7347 15.9547 32.052 15.208L32.486 14.172L29.168 7.032H29.98L32.878 13.318L35.496 7.032H36.308L32.682 15.488ZM42.078 16.048C41.4246 16.7387 40.6966 17.084 39.894 17.084C38.9513 17.084 38.214 16.776 37.682 16.16C37.15 15.544 36.884 14.6993 36.884 13.626C36.884 12.5527 37.15 11.708 37.682 11.092C38.214 10.476 38.9513 10.168 39.894 10.168C40.37 10.168 40.776 10.252 41.112 10.42C41.392 10.56 41.714 10.8213 42.078 11.204L41.588 11.652C41.0653 11.0827 40.496 10.798 39.88 10.798C39.0773 10.798 38.4706 11.0967 38.06 11.694C37.752 12.1327 37.598 12.7813 37.598 13.64C37.598 14.4987 37.752 15.138 38.06 15.558C38.48 16.1553 39.082 16.454 39.866 16.454C40.4913 16.454 41.0653 16.1693 41.588 15.6L42.078 16.048ZM48.9263 10.252V17H48.2123V10.854H45.5523V13.472C45.5523 14.7693 45.3423 15.7073 44.9223 16.286C44.5769 16.762 44.0729 17 43.4103 17H43.1023V16.398H43.3123C43.5083 16.398 43.6763 16.37 43.8163 16.314C44.0123 16.2393 44.1803 16.104 44.3203 15.908C44.4789 15.6747 44.6049 15.3573 44.6983 14.956C44.8009 14.4893 44.8523 13.906 44.8523 13.206V10.252H48.9263ZM52.9751 18.834C52.8444 19.1887 52.6904 19.45 52.5131 19.618C52.1958 19.9073 51.7711 20.052 51.2391 20.052H50.9031V19.422H51.1691C51.7664 19.422 52.1771 19.114 52.4011 18.498L52.9471 17L50.4831 10.252H51.2671L53.2971 16.16L55.3271 10.252H56.1111L52.9751 18.834ZM58.4307 10.854V17H57.7167V10.252H61.9167V10.854H58.4307ZM68.0086 17V11.288L64.1306 17H63.4166V10.252H64.1306V15.964L68.0086 10.252H68.7226V17H68.0086Z" fill="white"/>
</svg>
